<?xml version="1.0" encoding="UTF-8" standalone="no"?>
<svg
   version="1.1"
   width="595.27557pt"
   height="595.27557pt"
   id="svg141"
   viewBox="0 0 595.27557 595.27557"
   sodipodi:docname="logo-sotm-latam-2024.svg"
   inkscape:version="1.2.2 (b0a84865, 2022-12-01)"
   inkscape:export-filename="../LOGO STATE OF THE MAPS_BELEM2024.cdr.png"
   inkscape:export-xdpi="60.476192"
   inkscape:export-ydpi="60.476192"
   xmlns:inkscape="http://www.inkscape.org/namespaces/inkscape"
   xmlns:sodipodi="http://sodipodi.sourceforge.net/DTD/sodipodi-0.dtd"
   xmlns="http://www.w3.org/2000/svg"
   xmlns:svg="http://www.w3.org/2000/svg">
  <defs
     id="defs145" />
  <sodipodi:namedview
     id="namedview143"
     pagecolor="#ffffff"
     bordercolor="#000000"
     borderopacity="0.25"
     inkscape:showpageshadow="2"
     inkscape:pageopacity="0.0"
     inkscape:pagecheckerboard="0"
     inkscape:deskcolor="#d1d1d1"
     showgrid="false"
     inkscape:zoom="1.2939385"
     inkscape:cx="234.55519"
     inkscape:cy="396.85038"
     inkscape:window-width="1390"
     inkscape:window-height="1205"
     inkscape:window-x="906"
     inkscape:window-y="25"
     inkscape:window-maximized="0"
     inkscape:current-layer="Layer1005"
     inkscape:document-units="pt" />
  <g
     id="Layer1005">
    <g
       id="Layer1006">
      <path
         d="m 185.9564,101.5339 c 5.0494,-4.6607 13.1777,-10.3195 19.0645,-13.8436 17.7261,-10.612 31.4067,-16.4738 51.4921,-21.4747 45.0743,-11.2232 100.0976,-1.3479 137.5821,26.3699 6.8448,5.0615 13.5315,10.3246 19.785,16.1093 0.3155,0.2917 0.5746,0.5507 0.866,0.8665 l 11.425,12.3693 c 0.1709,0.1848 0.3127,0.3455 0.4745,0.538 1.6776,1.9925 3.28,4.0122 4.8416,6.0968 0.2682,0.358 0.4845,0.6726 0.7226,1.0516 l 14.7923,23.542 c 0.284,0.4521 0.5071,0.849 0.7458,1.3266 11.8187,23.6554 18.3883,49.1769 18.3883,75.7049 0,31.9964 -11.0755,54.4873 -22.676,83.0395 -0.7469,1.8383 -1.6662,3.4776 -2.4571,5.256 -0.7809,1.757 -1.5117,3.4929 -2.3777,5.2158 -3.09,6.1469 -6.1605,12.3032 -9.2302,18.4603 -0.892,1.7893 -1.8663,3.4796 -2.8406,5.2198 -0.7466,1.3334 -1.3456,2.8063 -2.082,4.1743 -0.0887,0.1647 -0.1664,0.3035 -0.2605,0.4648 l -30.5127,52.325 c -0.0595,0.1021 -0.1111,0.1886 -0.1729,0.2892 -8.782,14.339 -17.93,28.453 -27.3682,42.3686 l -16.7392,24.6798 c -1.7974,2.6501 -3.7763,5.182 -5.5372,7.8497 -5.917,8.9652 -12.5498,17.8878 -18.8903,26.5694 -4.061,5.5602 -15.086,21.6312 -20.4322,25.2105 -5.3614,3.5895 -11.9914,3.5884 -17.3514,-0.003 -5.0287,-3.3692 -12.0144,-13.9813 -15.9333,-19.1959 -11.9267,-15.8704 -23.9252,-32.4185 -34.7881,-49.0238 l -38.1615,-58.3359 c -0.0524,-0.0805 -0.0966,-0.1494 -0.1479,-0.2304 -4.9235,-7.8234 -9.7095,-15.7712 -14.4219,-23.7226 -4.8948,-8.2596 -9.9901,-16.7899 -14.305,-25.3602 -6.2337,-12.3814 -12.8761,-24.4358 -18.7169,-37.0315 -12.4685,-26.8878 -25.0965,-58.2177 -25.0965,-88.2193 0,-37.6052 12.6105,-72.1471 35.0175,-102.1178 0.2469,-0.3302 0.468,-0.6038 0.739,-0.9145 l 13.1403,-15.0602 c 0.2472,-0.2834 0.466,-0.5173 0.7322,-0.7829 0.8756,-0.8745 1.7214,-1.7688 2.6141,-2.6285 0.17,-0.1639 0.318,-0.3005 0.4949,-0.4567 z"
         style="fill:#009035;fill-rule:evenodd"
         id="path114" />
    </g>
    <path
       d="m 141.2275,230.1906 c 0,27.207 12.2924,57.1686 23.6497,81.6605 6.4623,13.9362 12.1279,23.9264 18.4983,36.5792 5.7432,11.4079 21.7029,37.789 27.9965,47.7894 l 38.1616,58.3358 c 8.9826,13.5353 24.6686,35.5049 34.2044,48.1921 1.9286,2.5678 10.5082,14.5118 12.148,15.6103 2.4476,-1.6387 29.9323,-39.7579 34.9839,-47.4126 1.8791,-2.8463 3.7774,-5.2223 5.6464,-8.0132 l 16.7393,-24.6797 c 9.1864,-13.7807 18.3173,-27.623 26.9757,-41.7601 l 30.5129,-52.325 c 0.8603,-1.5983 1.3277,-2.8322 2.2072,-4.4024 0.9623,-1.7196 1.5632,-2.698 2.4911,-4.5589 3.1634,-6.3461 6.0684,-12.1712 9.2531,-18.5063 0.8562,-1.7034 1.3207,-2.8807 2.0619,-4.5477 0.7461,-1.6782 1.4953,-2.911 2.2587,-4.7901 10.3143,-25.3865 21.5294,-47.3975 21.5294,-77.1713 0,-24.4132 -6.1372,-47.5065 -16.7443,-68.7369 l -14.7924,-23.5419 c -1.5187,-2.0274 -2.6839,-3.4945 -4.2904,-5.403 l -11.4251,-12.3691 c -5.8322,-5.395 -12.0611,-10.282 -18.4678,-15.0187 -33.7379,-24.9482 -83.9909,-33.8741 -124.5455,-23.7769 -19.6007,4.881 -29.9635,9.3743 -47.2511,19.723 -3.9339,2.3557 -13.4404,9.0753 -16.612,12.0288 l -7.7213,6.8197 c -0.924,0.8896 -1.5065,1.5257 -2.4143,2.4324 l -13.1405,15.0601 c -20.2409,27.0737 -31.9134,58.3146 -31.9134,92.7825 z"
       style="fill:#017dc3;fill-rule:evenodd"
       id="path117" />
    <g
       id="Layer1007">
      <path
         d="m 191.6595,107.843 c 2.5888,-2.3984 5.779,-4.6854 8.6448,-6.7428 2.9251,-2.0996 5.9958,-4.2645 9.0847,-6.1135 7.6573,-4.5842 15.414,-8.9025 23.652,-12.365 8.2885,-3.4838 16.8135,-5.9848 25.5269,-8.1541 42.6092,-10.6096 95.0292,-1.2518 130.4711,24.9556 6.5931,4.875 13.0433,9.9425 19.0666,15.5143 0.1435,0.1324 0.2611,0.2503 0.3938,0.3937 l 11.425,12.3693 c 0.0774,0.0842 0.142,0.157 0.2157,0.2446 1.5735,1.8692 3.0759,3.7625 4.5406,5.7184 0.1221,0.1627 0.2202,0.3058 0.3285,0.4779 l 14.7923,23.542 c 0.1293,0.2055 0.2305,0.3861 0.339,0.6029 11.2286,22.4742 17.4918,46.698 17.4918,71.9042 0,30.5255 -10.9588,52.5385 -22.0507,79.8387 -0.7059,1.7379 -1.5962,3.3088 -2.3488,5.002 -0.7257,1.6319 -1.4015,3.2519 -2.2054,4.8512 -3.0943,6.1551 -6.169,12.3199 -9.2426,18.4853 -0.8303,1.6653 -1.743,3.2394 -2.6501,4.8594 -0.7781,1.3898 -1.3901,2.8863 -2.1504,4.2988 -0.0402,0.0748 -0.0757,0.138 -0.1185,0.2114 l -30.5127,52.325 c -0.0269,0.0462 -0.0504,0.0856 -0.0785,0.1313 -8.7134,14.2268 -17.7899,28.2302 -27.1542,42.0366 l -16.7391,24.6799 c -1.8179,2.6801 -3.8138,5.2373 -5.5968,7.9387 -2.3641,3.5821 -4.9048,7.1124 -7.3927,10.6106 -3.7219,5.2331 -7.4801,10.442 -11.2675,15.6277 -3.5634,4.879 -7.1506,9.752 -10.8201,14.552 -1.7158,2.2441 -5.1894,7.0769 -7.4758,8.6076 -2.4369,1.6317 -5.4504,1.6311 -7.8871,-10e-4 -2.4199,-1.6214 -5.8728,-6.474 -7.6842,-8.8818 -2.0837,-2.7706 -4.1031,-5.589 -6.184,-8.3585 -5.923,-7.8812 -11.725,-15.8723 -17.4484,-23.8995 -5.7898,-8.1206 -11.5617,-16.3241 -17.0215,-24.6704 l -38.1614,-58.3359 c -0.0241,-0.0366 -0.0439,-0.0678 -0.0672,-0.1049 -4.8832,-7.759 -9.6298,-15.6421 -14.3036,-23.5284 -4.794,-8.0895 -9.7994,-16.4551 -14.0253,-24.8488 -6.1911,-12.2975 -12.797,-24.2759 -18.5975,-36.7849 -11.8712,-25.6 -24.3074,-56.0843 -24.3074,-84.6417 0,-35.765 12.0181,-68.5273 33.3244,-97.0259 0.1122,-0.15 0.2129,-0.2744 0.3359,-0.4156 l 13.1403,-15.0602 c 0.1125,-0.1287 0.212,-0.2353 0.3328,-0.3557 0.8393,-0.8382 1.65,-1.698 2.5052,-2.5217 0.0774,-0.0746 0.1446,-0.1367 0.2251,-0.2075 z"
         style="fill:#ffffff;fill-rule:evenodd"
         id="path119" />
    </g>
    <path
       d="m 141.2275,230.1906 c 0,27.207 12.2924,57.1686 23.6497,81.6605 6.4623,13.9362 12.1279,23.9264 18.4983,36.5792 5.7432,11.4079 21.7029,37.789 27.9965,47.7894 l 38.1616,58.3358 c 8.9826,13.5353 24.6686,35.5049 34.2044,48.1921 1.9286,2.5678 10.5082,14.5118 12.148,15.6103 2.4476,-1.6387 29.9323,-39.7579 34.9839,-47.4126 1.8791,-2.8463 3.7774,-5.2223 5.6464,-8.0132 l 16.7393,-24.6797 c 9.1864,-13.7807 18.3173,-27.623 26.9757,-41.7601 l 30.5129,-52.325 c 0.8603,-1.5983 1.3277,-2.8322 2.2072,-4.4024 0.9623,-1.7196 1.5632,-2.698 2.4911,-4.5589 3.1634,-6.3461 6.0684,-12.1712 9.2531,-18.5063 0.8562,-1.7034 1.3207,-2.8807 2.0619,-4.5477 0.7461,-1.6782 1.4953,-2.911 2.2587,-4.7901 10.3143,-25.3865 21.5294,-47.3975 21.5294,-77.1713 0,-24.4132 -6.1372,-47.5065 -16.7443,-68.7369 l -14.7924,-23.5419 c -1.5187,-2.0274 -2.6839,-3.4945 -4.2904,-5.403 l -11.4251,-12.3691 c -5.8322,-5.395 -12.0611,-10.282 -18.4678,-15.0187 -33.7379,-24.9482 -83.9909,-33.8741 -124.5455,-23.7769 -19.6007,4.881 -29.9635,9.3743 -47.2511,19.723 -3.9339,2.3557 -13.4404,9.0753 -16.612,12.0288 l -7.7213,6.8197 c -0.924,0.8896 -1.5065,1.5257 -2.4143,2.4324 l -13.1405,15.0601 c -20.2409,27.0737 -31.9134,58.3146 -31.9134,92.7825 z"
       style="fill:#017dc3;fill-rule:evenodd"
       id="path122" />
    <path
       d="m 295.8866,144.7174 c 25.0126,0 45.2894,20.2771 45.2894,45.2895 0,25.0126 -20.2768,45.2897 -45.2894,45.2897 -25.0127,0 -45.2897,-20.2771 -45.2897,-45.2897 0,-25.0124 20.277,-45.2895 45.2897,-45.2895 z"
       style="fill:#ffffff;fill-rule:evenodd;stroke:#009035;stroke-width:0.5669;stroke-linecap:butt;stroke-linejoin:miter;stroke-dasharray:none"
       id="path124" />
    <g
       id="Layer1008">
      <path
         d="m 110.4962,336.9351 h 373.879 c 17.966,0 32.6406,14.6746 32.6406,32.6406 v 63.385 c 0,17.9659 -14.6746,32.6406 -32.6406,32.6406 h -373.879 c -17.9663,0 -32.6407,-14.6744 -32.6407,-32.6406 v -63.385 c 0,-17.9663 14.6744,-32.6406 32.6407,-32.6406 z"
         style="fill:#009035;fill-rule:evenodd"
         id="path126" />
    </g>
    <path
       d="m 110.4962,344.0217 h 373.879 c 14.0547,0 25.554,11.4993 25.554,25.554 v 63.385 c 0,14.0547 -11.4993,25.554 -25.554,25.554 h -373.879 c -14.055,0 -25.5541,-11.4993 -25.5541,-25.554 v -63.385 c 0,-14.0547 11.4991,-25.554 25.5541,-25.554 z"
       style="fill:#ffffff;fill-rule:evenodd"
       id="path129" />
    <path
       d="m 136.8808,361.2577 h -10.3034 v -2.2291 c 0,-1.0412 -0.1349,-1.7082 -0.3957,-1.9939 -0.2605,-0.2858 -0.6919,-0.4255 -1.3034,-0.4255 -0.6655,0 -1.1687,0.1905 -1.5103,0.578 -0.3418,0.381 -0.5125,0.9589 -0.5125,1.7399 0,1.0035 0.1979,1.7589 0.5845,2.2671 0.3776,0.5015 1.4202,1.1175 3.1374,1.8414 4.9178,2.0764 8.0198,3.7848 9.2962,5.112 1.2855,1.3272 1.9242,3.4671 1.9242,6.4134 0,2.1464 -0.3597,3.7276 -1.0701,4.75 -0.7103,1.016 -2.0769,1.8669 -4.1176,2.5526 -2.0319,0.6922 -4.3965,1.0352 -7.1025,1.0352 -2.9667,0 -5.493,-0.3999 -7.5968,-1.1939 -2.0948,-0.7937 -3.4614,-1.8034 -4.1176,-3.0288 -0.6472,-1.232 -0.9712,-2.9784 -0.9712,-5.2325 v -1.9749 h 10.3034 v 3.6641 c 0,1.1301 0.1434,1.8541 0.4314,2.1778 0.2877,0.324 0.8002,0.4828 1.5372,0.4828 0.7373,0 1.2856,-0.2033 1.6453,-0.616 0.3594,-0.4065 0.5394,-1.016 0.5394,-1.8162 0,-1.7716 -0.3416,-2.9338 -1.0247,-3.4735 -0.7104,-0.546 -2.4364,-1.4605 -5.1874,-2.7431 -2.7513,-1.2892 -4.5672,-2.2289 -5.4666,-2.8131 -0.8898,-0.5843 -1.6362,-1.3907 -2.2204,-2.4194 -0.5845,-1.029 -0.881,-2.3434 -0.881,-3.9436 0,-2.3051 0.4133,-3.9943 1.2498,-5.0609 0.8359,-1.067 2.1756,-1.8987 4.0365,-2.5022 1.861,-0.6032 4.0995,-0.9017 6.7337,-0.9017 2.8772,0 5.3223,0.3303 7.3542,0.9845 2.0228,0.6602 3.3625,1.4859 4.0187,2.4891 0.6565,0.9969 0.9893,2.6926 0.9893,5.0865 z m 26.7641,-9.1443 v 6.02 h -6.527 v 24.1177 h -11.1118 v -24.1177 h -6.5815 v -6.02 z m 19.5092,0 6.3476,30.1377 h -11.3371 l -0.6024,-5.4102 h -4.0005 l -0.6024,5.4102 h -11.4806 l 5.6276,-30.1377 z m -5.8884,19.3933 c -0.5306,-3.4163 -1.0877,-7.6456 -1.6812,-12.6938 -1.0968,5.7911 -1.7893,10.0204 -2.0858,12.6938 z m 33.4981,-19.3933 v 6.02 h -6.527 v 24.1177 h -11.1121 v -24.1177 h -6.5812 v -6.02 z m 2.5351,0 h 18.5023 v 6.02 h -7.39 v 5.7532 h 6.9044 v 5.7152 h -6.9044 v 6.6294 h 8.1454 v 6.0199 h -19.2577 z m 57.2241,17.6661 c 0,3.0288 -0.0989,5.169 -0.3056,6.4262 -0.1978,1.2637 -0.8271,2.4131 -1.8879,3.4546 -1.0612,1.0414 -2.4995,1.8416 -4.3066,2.4003 -1.8071,0.5587 -3.911,0.8382 -6.3114,0.8382 -2.2836,0 -4.3242,-0.2667 -6.1401,-0.7937 -1.8164,-0.5272 -3.2817,-1.3144 -4.3784,-2.3686 -1.1061,-1.0542 -1.7623,-2.2036 -1.9783,-3.4418 -0.2066,-1.2447 -0.3146,-3.4163 -0.3146,-6.5152 v -5.1562 c 0,-3.0291 0.0992,-5.1693 0.3058,-6.4264 0.1979,-1.2637 0.8272,-2.4132 1.8879,-3.4546 1.061,-1.0414 2.4993,-1.8414 4.3067,-2.4004 1.8071,-0.5587 3.9106,-0.8382 6.311,-0.8382 2.2836,0 4.3243,0.2668 6.1404,0.794 1.8165,0.527 3.2817,1.3144 4.3784,2.3683 1.1061,1.0543 1.7623,2.2037 1.978,3.4419 0.207,1.2447 0.3147,3.4163 0.3147,6.5154 z m -11.1121,-9.9 c 0,-1.3969 -0.108,-2.2924 -0.324,-2.6861 -0.2154,-0.3872 -0.6562,-0.5842 -1.3215,-0.5842 -0.5664,0 -0.9978,0.1587 -1.3034,0.4765 -0.2968,0.311 -0.4496,1.2444 -0.4496,2.7938 v 14.0655 c 0,1.7465 0.0987,2.8259 0.2965,3.2324 0.1979,0.4127 0.6565,0.616 1.3757,0.616 0.7373,0 1.2138,-0.235 1.4204,-0.705 0.207,-0.4697 0.3059,-1.5939 0.3059,-3.3656 z m 15.2836,-7.7661 h 18.7718 v 6.02 h -7.6595 v 5.7532 h 6.7964 v 5.7152 h -6.7964 v 12.6493 h -11.1123 z m 53.3131,0 v 6.02 h -6.527 v 24.1177 h -11.1118 v -24.1177 h -6.5815 v -6.02 z m 27.9961,0 v 30.1377 h -11.1124 v -12.6493 h -3.2363 v 12.6493 h -11.1121 v -30.1377 h 11.1121 v 10.7825 h 3.2363 v -10.7825 z m 4.4864,0 h 18.5023 v 6.02 h -7.3899 v 5.7532 h 6.9043 v 5.7152 h -6.9043 v 6.6294 h 8.1453 v 6.0199 h -19.2577 z m 66.1244,0 v 30.1377 h -9.7098 l -0.0267,-20.3457 -3.8568,20.3457 h -6.7969 l -4.0726,-19.8887 -0.0269,19.8887 h -9.7098 v -30.1377 h 14.3399 c 0.4045,1.8224 0.845,3.9688 1.3215,6.42 l 1.5733,7.6518 2.5262,-14.0718 z m 23.6086,0 6.3473,30.1377 h -11.3369 l -0.6023,-5.4102 h -4.0006 l -0.6023,5.4102 h -11.4806 l 5.6276,-30.1377 z m -5.8884,19.3933 c -0.5307,-3.4163 -1.0877,-7.6456 -1.6813,-12.6938 -1.0967,5.7911 -1.7892,10.0204 -2.0857,12.6938 z m 14.1417,-19.3933 h 11.1751 c 3.0206,0 5.3402,0.165 6.9675,0.5018 1.6183,0.3365 2.8412,0.8189 3.659,1.4476 0.8183,0.635 1.3666,1.4035 1.6636,2.2989 0.2872,0.9017 0.4315,2.2924 0.4315,4.1783 v 2.6226 c 0,1.9177 -0.279,3.3211 -0.8453,4.1976 -0.5576,0.8827 -1.5914,1.5621 -3.0838,2.0318 -1.5013,0.47 -3.4611,0.705 -5.8794,0.705 h -2.9758 v 12.1541 h -11.1124 z m 11.1124,5.1435 v 7.6774 c 0.3147,0.0127 0.5842,0.019 0.809,0.019 1.0157,0 1.717,-0.1778 2.1127,-0.5332 0.3864,-0.3493 0.5842,-1.086 0.5842,-2.2037 v -2.4829 c 0,-1.0286 -0.2248,-1.7019 -0.6831,-2.0128 -0.4493,-0.3113 -1.3938,-0.4638 -2.8228,-0.4638 z"
       style="fill:#009035;fill-rule:evenodd"
       id="path131" />
    <path
       d="m 197.0929,391.9805 v 15.8797 h 2.937 v 3.9636 h -7.8163 v -19.8433 z m 22.7316,0 2.787,19.8433 h -4.9779 l -0.2645,-3.5623 h -1.7566 l -0.2645,3.5623 h -5.0411 l 2.471,-19.8433 z m -2.5858,12.7689 c -0.2327,-2.2493 -0.4776,-5.034 -0.7381,-8.3579 -0.4816,3.8131 -0.7858,6.5976 -0.9159,8.3579 z m 24.3145,-12.7689 v 3.9637 h -2.8658 v 15.8796 h -4.8793 v -15.8796 h -2.8896 v -3.9637 z m 18.1721,0 2.7873,19.8433 h -4.978 l -0.2644,-3.5623 h -1.7569 l -0.2642,3.5623 h -5.0412 l 2.471,-19.8433 z m -2.5855,12.7689 c -0.2327,-2.2493 -0.4777,-5.034 -0.7382,-8.3579 -0.4816,3.8131 -0.7857,6.5976 -0.9158,8.3579 z m 30.8316,-12.7689 v 19.8433 h -4.2633 l -0.0117,-13.3962 -1.6937,13.3962 h -2.9843 l -1.7881,-13.0952 -0.0119,13.0952 h -4.2636 v -19.8433 h 6.2966 c 0.1775,1.1999 0.3711,2.6129 0.5803,4.227 l 0.6908,5.0383 1.1095,-9.2653 z m 49.0566,16.4568 v 3.3865 h -10.2792 l 0.008,-2.8346 c 3.0475,-5.2724 4.8597,-8.5337 5.436,-9.788 0.5763,-1.2544 0.8643,-2.2329 0.8643,-2.9311 0,-0.5394 -0.0907,-0.9408 -0.2645,-1.2084 -0.1735,-0.2633 -0.4379,-0.3971 -0.7934,-0.3971 -0.3552,0 -0.6236,0.1463 -0.7974,0.4391 -0.1735,0.2925 -0.2605,0.8739 -0.2605,1.7436 v 1.8813 h -4.1921 v -0.7234 c 0,-1.1078 0.0549,-1.9859 0.1618,-2.6257 0.1066,-0.6395 0.375,-1.2711 0.7971,-1.8899 0.4263,-0.6188 0.9791,-1.091 1.658,-1.4088 0.6792,-0.3177 1.4924,-0.4768 2.4398,-0.4768 1.8592,0 3.2646,0.4893 4.2199,1.4636 0.9513,0.9782 1.429,2.2115 1.429,3.7043 0,1.1372 -0.2685,2.3371 -0.8054,3.6042 -0.5368,1.2668 -2.1197,3.951 -4.7449,8.0612 z m 22.4433,-9.7379 v 6.6144 c 0,1.5052 -0.0788,2.5965 -0.2327,3.2822 -0.1542,0.69 -0.4737,1.3298 -0.9595,1.9276 -0.4853,0.5936 -1.0698,1.0244 -1.7564,1.2835 -0.6831,0.2634 -1.449,0.3929 -2.2977,0.3929 -1.1172,0 -2.0447,-0.1378 -2.7868,-0.4096 -0.7384,-0.2758 -1.3263,-0.7024 -1.7685,-1.2793 -0.4382,-0.5814 -0.75,-1.1917 -0.9357,-1.8314 -0.1854,-0.6438 -0.2764,-1.664 -0.2764,-3.0606 v -6.9197 c 0,-1.8229 0.1502,-3.1861 0.4462,-4.0932 0.2959,-0.9074 0.8841,-1.635 1.7685,-2.1827 0.8802,-0.5476 1.9503,-0.8195 3.2054,-0.8195 1.0265,0 1.942,0.1883 2.7516,0.5687 0.8093,0.3804 1.4131,0.8447 1.8116,1.3923 0.4028,0.5477 0.6753,1.1622 0.8173,1.8479 0.142,0.6857 0.2131,1.7813 0.2131,3.2865 z m -4.6661,-1.6599 c 0,-1.0537 -0.0473,-1.7102 -0.1457,-1.9778 -0.0949,-0.2633 -0.32,-0.3971 -0.6792,-0.3971 -0.3472,0 -0.5762,0.1423 -0.6868,0.4224 -0.1145,0.28 -0.1698,0.9323 -0.1698,1.9525 v 9.6667 c 0,1.1497 0.0513,1.8439 0.1579,2.0781 0.1026,0.2383 0.3277,0.3554 0.6789,0.3554 0.3475,0 0.5726,-0.138 0.6832,-0.4181 0.1065,-0.2761 0.1615,-0.8991 0.1615,-1.8692 z m 26.0241,11.3978 v 3.3865 h -10.2796 l 0.008,-2.8346 c 3.0476,-5.2724 4.8598,-8.5337 5.4358,-9.788 0.5765,-1.2544 0.8645,-2.2329 0.8645,-2.9311 0,-0.5394 -0.0907,-0.9408 -0.2645,-1.2084 -0.1737,-0.2633 -0.4382,-0.3971 -0.7934,-0.3971 -0.3551,0 -0.6236,0.1463 -0.7974,0.4391 -0.1737,0.2925 -0.2607,0.8739 -0.2607,1.7436 v 1.8813 h -4.1922 v -0.7234 c 0,-1.1078 0.0553,-1.9859 0.1621,-2.6257 0.1063,-0.6395 0.3748,-1.2711 0.7971,-1.8899 0.4264,-0.6188 0.9791,-1.091 1.658,-1.4088 0.6789,-0.3177 1.4925,-0.4768 2.4398,-0.4768 1.8593,0 3.2647,0.4893 4.2197,1.4636 0.9516,0.9782 1.4292,2.2115 1.4292,3.7043 0,1.1372 -0.2685,2.3371 -0.8053,3.6042 -0.5369,1.2668 -2.1198,3.951 -4.7452,8.0612 z m 20.501,-16.4568 v 12.9696 h 1.3266 v 3.3868 h -1.3266 v 3.4869 h -4.6661 v -3.4869 h -5.5659 v -3.3868 l 4.0462,-12.9696 z m -4.6661,12.9696 v -8.4416 l -2.0761,8.4416 z"
       style="fill:#000000;fill-rule:evenodd"
       id="path133" />
    <g
       id="Layer1009">
      <path
         d="m 317.3386,420.8465 3.8778,-5.9953 h 11.3082 l -7.2586,5.9953 h 3.6243 l 4.879,33.0404 h -10.9196 l -0.4232,-5.4224 h -0.1891 l -0.4235,5.4224 h -10.9933 l 4.326,-33.0404 z m -145.5752,0 3.8772,-5.9953 h 11.3083 l -7.2584,5.9953 h 5.0374 v 8.8682 h -5.1931 v 2.9316 h 4.8521 v 8.5626 h -4.8521 v 3.8098 h 5.7238 v 8.8682 h -16.3667 v -33.0404 z m -42.4718,15.2972 c 0.4739,0.3433 0.894,0.7549 1.2291,1.2492 0.9907,1.463 1.2107,3.4566 1.2107,5.18 v 2.8004 c 0,1.6319 -0.1267,3.6419 -0.8292,5.1395 -0.6179,1.3172 -1.639,2.2581 -3.0092,2.7499 -1.7396,0.6242 -4.8501,0.6242 -6.6952,0.6242 H 110.778 v -33.0404 h 9.1754 c 1.8941,0 4.1638,0.0856 5.9851,0.6406 1.6186,0.4936 2.8944,1.5007 3.8265,2.9095 1.18,1.7836 1.3977,4.3773 1.3977,6.4593 0,1.4922 -0.1678,3.3475 -1.1256,4.5624 -0.2149,0.2727 -0.4671,0.5128 -0.7455,0.7254 z m 15.3986,-6.429 v 2.9316 h 4.8521 v 8.5626 h -4.8521 v 3.8098 h 5.7238 v 8.8682 h -16.3667 v -33.0404 h 15.836 v 8.8682 z m 18.0888,15.304 h 4.7004 v 8.8682 H 152.136 v -33.0404 h 10.643 z m 41.4113,8.3319 -0.0714,0.5363 h -7.2454 l -0.235,-1.6365 -0.002,1.6365 h -9.6562 v -33.0404 h 12.708 l 0.1865,1.1996 c 0.1914,1.232 0.3677,2.4668 0.5417,3.7021 l 0.6171,-4.9017 h 12.8132 v 33.0404 h -9.6562 z M 237.257,436.083 v 8.028 h -12.6142 v -8.028 z m 21.4262,5.6223 v 12.1816 H 248.04 v -33.0404 h 9.2701 c 1.692,0 3.6678,0.0788 5.298,0.561 1.1965,0.354 2.3692,0.9215 3.219,1.8578 0.7603,0.8379 1.2498,1.84 1.501,2.9413 0.3163,1.3875 0.3387,3.0823 0.3387,4.5028 v 2.6286 c 0,1.4958 -0.0986,3.4044 -0.7177,4.7863 -0.5752,1.284 -1.6093,2.1815 -2.8814,2.751 -1.4477,0.648 -3.1391,0.83 -4.7107,0.83 z m 19.4038,6.7592 h -0.1891 l -0.4235,5.4224 h -10.9933 l 4.3259,-33.0404 h 13.7438 l 4.879,33.0404 h -10.9196 z m 30.2527,-11.5708 c 0.1585,0.1398 0.3056,0.29 0.4385,0.4516 0.5624,0.6848 1.0605,1.4817 1.2688,2.3519 0.2968,1.2402 0.2347,3.5082 0.2347,4.7976 v 9.3921 h -20.2331 v -33.0404 h 6.9327 c 2.3136,0 5.5159,-0.0368 7.772,0.4598 1.6997,0.3742 3.0461,1.3459 4.0405,2.7675 1.2388,1.7711 1.4879,4.3313 1.4879,6.4321 0,1.6905 -0.1179,4.136 -1.1361,5.5598 -0.2305,0.3223 -0.5031,0.5959 -0.8059,0.828 z m 46.8142,-0.8107 v 8.028 h -12.6142 v -8.028 z m 29.2969,0.0607 c 0.474,0.3433 0.8941,0.7546 1.2291,1.2492 0.9907,1.463 1.2104,3.4566 1.2104,5.18 v 2.8004 c 0,1.6319 -0.1267,3.6422 -0.8289,5.1395 -0.6179,1.3175 -1.6389,2.2581 -3.0095,2.7499 -1.7393,0.6242 -4.8501,0.6242 -6.6949,0.6242 h -10.4198 v -33.0404 h 9.1751 c 1.8944,0 4.1639,0.0856 5.9854,0.6406 1.6183,0.4933 2.8945,1.501 3.8265,2.9095 1.1798,1.7833 1.3975,4.3776 1.3975,6.4593 0,1.4919 -0.1676,3.3475 -1.1254,4.5624 -0.2149,0.2727 -0.4671,0.5128 -0.7455,0.7254 z m 23.0465,0.75 c 0.1585,0.1398 0.3056,0.29 0.4385,0.4516 0.5624,0.6848 1.0605,1.4817 1.2688,2.3519 0.2968,1.2402 0.2347,3.5082 0.2347,4.7976 v 9.3921 h -20.2331 v -33.0404 h 6.9327 c 2.3136,0 5.5159,-0.0368 7.772,0.4598 1.6997,0.3742 3.0461,1.3459 4.0405,2.7675 1.2388,1.7711 1.4879,4.3313 1.4879,6.4321 0,1.6905 -0.1179,4.136 -1.1361,5.5598 -0.2304,0.3223 -0.5031,0.5959 -0.8059,0.828 z m 14.0868,11.5708 h -0.1894 l -0.4232,5.4224 h -10.9933 l 4.3257,-33.0404 h 13.744 l 4.879,33.0404 h -10.9196 z m 24.7385,-15.6184 c 2.0237,1.2813 4.4507,3.0019 5.5953,4.6936 1.3422,1.9834 1.5956,4.8932 1.5956,7.2224 0,1.7059 -0.136,3.8277 -0.8957,5.383 -0.7302,1.4942 -2.0849,2.5053 -3.551,3.2125 -1.7535,0.8462 -3.67,1.1784 -5.6066,1.1784 -2.0849,0 -4.1616,-0.3688 -6.0112,-1.3663 -1.5845,-0.8546 -2.9106,-2.0721 -3.5489,-3.7894 -0.6461,-1.7367 -0.7713,-3.8996 -0.7713,-5.7381 v -3.3968 h 6.0233 c -1.2121,-0.8073 -2.594,-1.7388 -3.6198,-2.6946 -0.8655,-0.8062 -1.4766,-1.8459 -1.9112,-2.9373 -0.5558,-1.396 -0.7197,-2.9846 -0.7197,-4.4767 0,-1.8252 0.1576,-4.1253 1.0534,-5.7552 0.7855,-1.4292 2.016,-2.4327 3.484,-3.1113 1.6617,-0.7685 3.5085,-1.0346 5.3263,-1.0346 1.965,0 3.9666,0.2868 5.7626,1.1174 1.4709,0.68 2.823,1.6812 3.5166,3.1887 0.7314,1.5893 0.8249,3.9639 0.8249,5.6905 v 2.6138 z m -3.1192,11.2153 v 1.2736 c 0,0.1984 0.002,0.5942 0.03,0.9434 0.044,-0.2529 0.0542,-0.5477 0.0542,-0.7143 0,-0.2676 -0.0153,-0.9179 -0.0842,-1.5027 z m 22.928,-23.2149 v 33.0404 h -10.643 v -33.0404 z m 13.2622,24.1722 h 4.7004 v 8.8682 h -15.3434 v -33.0404 h 10.643 z"
         style="fill:#009035;fill-rule:evenodd"
         id="path135" />
    </g>
    <path
       d="m 112.1953,422.2638 h 7.7581 c 2.4509,0 4.3084,0.1911 5.5718,0.5792 1.2634,0.3821 2.2808,1.1647 3.0577,2.3357 0.777,1.1775 1.1625,3.0677 1.1625,5.6772 0,1.7629 -0.2718,2.9912 -0.8215,3.6851 -0.5493,0.7001 -1.6361,1.2282 -3.2533,1.6038 1.8065,0.4136 3.0322,1.0948 3.6765,2.0429 0.6444,0.9548 0.9669,2.412 0.9669,4.3852 v 2.8004 c 0,2.0429 -0.2338,3.5512 -0.695,4.5377 -0.4612,0.9802 -1.1942,1.6549 -2.2048,2.0177 -1.0108,0.3625 -3.083,0.5408 -6.2164,0.5408 h -9.0025 z m 7.8083,5.1554 v 6.7207 c 0.3288,-0.0128 0.5814,-0.019 0.7645,-0.019 0.7455,0 1.2257,-0.1911 1.4278,-0.5664 0.2084,-0.3818 0.3095,-1.4703 0.3095,-3.2587 0,-0.9482 -0.0819,-1.6101 -0.2528,-1.9922 -0.1704,-0.3753 -0.3915,-0.6171 -0.663,-0.7191 -0.2719,-0.0953 -0.8025,-0.1525 -1.586,-0.1653 z m 0,11.4177 v 8.4776 c 1.074,-0.0383 1.7629,-0.2101 2.0596,-0.5219 0.2971,-0.3121 0.4422,-1.082 0.4422,-2.304 v -2.8259 c 0,-1.2982 -0.1326,-2.0812 -0.3979,-2.3612 -0.2654,-0.2736 -0.9666,-0.4264 -2.1039,-0.4646 z m 15.461,-16.5731 h 13.0014 v 6.0336 h -5.1931 v 5.7662 h 4.8521 v 5.728 h -4.8521 v 6.6444 h 5.7237 v 6.0335 h -13.532 z m 25.897,0 v 24.1722 h 4.7004 v 6.0335 h -12.5087 v -30.2057 z m 8.9476,0 h 13.0014 v 6.0336 h -5.1931 v 5.7662 h 4.8521 v 5.728 h -4.8521 v 6.6444 h 5.7237 v 6.0335 h -13.532 z m 12.6981,-5.9952 -6.1024,5.0405 h -3.7528 l 3.2598,-5.0405 z m 29.4225,5.9952 v 30.2057 h -6.823 l -0.019,-20.3915 -2.7102,20.3915 h -4.7758 l -2.8619,-19.9335 -0.019,19.9335 h -6.823 v -30.2057 h 10.0766 c 0.2841,1.8267 0.5936,3.9779 0.9284,6.4347 l 1.1055,7.6691 1.7756,-14.1038 z m 23.4099,15.2365 v 5.1934 h -9.7795 v -5.1934 z m 13.6176,-15.2365 h 7.8528 c 2.1229,0 3.7525,0.1656 4.896,0.5029 1.1373,0.3373 1.9965,0.8209 2.5713,1.4511 0.5746,0.6363 0.9601,1.4065 1.1688,2.304 0.2021,0.9036 0.3033,2.2974 0.3033,4.1876 v 2.6286 c 0,1.9221 -0.1959,3.3287 -0.5939,4.2069 -0.3917,0.8846 -1.1182,1.5658 -2.1671,2.0366 -1.055,0.4709 -2.4321,0.7064 -4.1315,0.7064 h -2.0911 v 12.1816 h -7.8086 z m 7.8086,5.1554 v 7.6944 c 0.2211,0.0127 0.4108,0.0193 0.5687,0.0193 0.7137,0 1.2064,-0.1783 1.4845,-0.5347 0.2718,-0.35 0.4107,-1.0885 0.4107,-2.2084 v -2.4886 c 0,-1.0309 -0.1582,-1.7056 -0.4802,-2.0174 -0.3158,-0.3121 -0.9794,-0.4646 -1.9837,-0.4646 z m 26.0615,-5.1554 4.4603,30.2057 h -7.9665 l -0.4232,-5.4224 h -2.8111 l -0.4235,5.4224 h -8.0674 l 3.9549,-30.2057 z m -4.138,19.4372 c -0.3728,-3.4242 -0.7643,-7.6629 -1.1815,-12.7227 -0.7705,5.8045 -1.2572,10.0431 -1.4655,12.7227 z m 12.2765,-19.4372 h 5.5154 c 3.6765,0 6.1659,0.1401 7.4673,0.4267 1.3014,0.2863 2.3627,1.0182 3.1839,2.1957 0.8215,1.171 1.2319,3.0484 1.2319,5.6197 0,2.3485 -0.2905,3.9268 -0.8716,4.7352 -0.5752,0.8082 -1.7184,1.2918 -3.4243,1.4511 1.5415,0.3881 2.5838,0.9037 3.1144,1.5528 0.5307,0.6429 0.8592,1.241 0.9856,1.7821 0.1327,0.5409 0.1959,2.0302 0.1959,4.4677 v 7.9747 h -7.2397 v -10.0493 c 0,-1.6166 -0.1264,-2.6159 -0.3793,-3.0042 -0.2463,-0.3881 -0.9031,-0.5791 -1.9709,-0.5791 v 13.6326 h -7.8086 z m 7.8086,5.1554 v 6.7207 c 0.872,0 1.4783,-0.1208 1.8258,-0.3629 0.3475,-0.2418 0.5244,-1.0309 0.5244,-2.3609 v -1.6611 c 0,-0.9613 -0.1709,-1.5911 -0.5057,-1.8905 -0.3347,-0.299 -0.9538,-0.4453 -1.8445,-0.4453 z m 28.3924,-5.1554 4.4603,30.2057 h -7.9665 l -0.4232,-5.4224 h -2.8111 l -0.4235,5.4224 h -8.0674 l 3.9549,-30.2057 z m -4.138,19.4372 c -0.3728,-3.4242 -0.7645,-7.6629 -1.1815,-12.7227 -0.7705,5.8045 -1.2572,10.0431 -1.4655,12.7227 z m 5.0542,-25.4324 -6.1028,5.0405 h -3.7527 l 3.2601,-5.0405 z m 25.1535,21.2317 v 5.1934 h -9.7796 v -5.1934 z m 13.6179,-15.2365 h 7.7578 c 2.4512,0 4.3084,0.1911 5.5721,0.5792 1.2634,0.3821 2.2805,1.1647 3.0577,2.3357 0.7767,1.1775 1.1622,3.0677 1.1622,5.6772 0,1.7629 -0.2718,2.9912 -0.8212,3.6851 -0.5496,0.7001 -1.6361,1.2282 -3.2536,1.6038 1.8068,0.4136 3.0325,1.0948 3.6769,2.0429 0.6443,0.9548 0.9666,2.412 0.9666,4.3852 v 2.8004 c 0,2.0429 -0.2336,3.5512 -0.6948,4.5377 -0.4612,0.9802 -1.1942,1.6549 -2.2051,2.0177 -1.0105,0.3625 -3.0829,0.5408 -6.2161,0.5408 h -9.0025 z m 7.8083,5.1554 v 6.7207 c 0.3285,-0.0128 0.5814,-0.019 0.7645,-0.019 0.7452,0 1.2257,-0.1911 1.4275,-0.5664 0.2087,-0.3818 0.3096,-1.4703 0.3096,-3.2587 0,-0.9482 -0.0819,-1.6101 -0.2526,-1.9922 -0.1706,-0.3753 -0.3917,-0.6171 -0.6633,-0.7191 -0.2718,-0.0953 -0.8025,-0.1525 -1.5857,-0.1653 z m 0,11.4177 v 8.4776 c 1.0741,-0.0383 1.7629,-0.2101 2.0597,-0.5219 0.2967,-0.3121 0.4419,-1.082 0.4419,-2.304 v -2.8259 c 0,-1.2982 -0.1324,-2.0812 -0.3977,-2.3612 -0.2653,-0.2736 -0.9666,-0.4264 -2.1039,-0.4646 z m 15.4607,-16.5731 h 5.5154 c 3.6765,0 6.1659,0.1401 7.4673,0.4267 1.3014,0.2863 2.3627,1.0182 3.1839,2.1957 0.8215,1.171 1.2319,3.0484 1.2319,5.6197 0,2.3485 -0.2905,3.9268 -0.8716,4.7352 -0.5752,0.8082 -1.7184,1.2918 -3.4243,1.4511 1.5415,0.3881 2.5838,0.9037 3.1144,1.5528 0.5307,0.6429 0.8592,1.241 0.9856,1.7821 0.1327,0.5409 0.1959,2.0302 0.1959,4.4677 v 7.9747 h -7.2397 v -10.0493 c 0,-1.6166 -0.1264,-2.6159 -0.3792,-3.0042 -0.2464,-0.3881 -0.9034,-0.5791 -1.9713,-0.5791 v 13.6326 h -7.8083 z m 7.8083,5.1554 v 6.7207 c 0.8723,0 1.4786,-0.1208 1.8261,-0.3629 0.3473,-0.2418 0.5244,-1.0309 0.5244,-2.3609 v -1.6611 c 0,-0.9613 -0.1709,-1.5911 -0.5057,-1.8905 -0.3347,-0.299 -0.9538,-0.4453 -1.8448,-0.4453 z m 28.3927,-5.1554 4.4603,30.2057 h -7.9665 l -0.4232,-5.4224 h -2.8114 l -0.4232,5.4224 h -8.0674 l 3.9546,-30.2057 z m -4.138,19.4372 c -0.3728,-3.4242 -0.7645,-7.6629 -1.1815,-12.7227 -0.7707,5.8045 -1.2572,10.0431 -1.4655,12.7227 z m 28.7654,-10.2722 h -7.24 v -2.234 c 0,-1.0437 -0.0946,-1.7121 -0.2778,-1.9984 -0.1834,-0.2866 -0.4864,-0.4266 -0.9161,-0.4266 -0.4674,0 -0.8215,0.1911 -1.0613,0.5794 -0.2401,0.3818 -0.3603,0.9609 -0.3603,1.7439 0,1.0054 0.1392,1.7628 0.4107,2.2719 0.2654,0.5029 0.9981,1.1203 2.2048,1.8457 3.4558,2.0812 5.6353,3.7933 6.5322,5.1233 0.9034,1.3303 1.3521,3.475 1.3521,6.4281 0,2.1513 -0.2528,3.7361 -0.752,4.7608 -0.4989,1.0182 -1.459,1.8712 -2.8933,2.5583 -1.4276,0.6939 -3.0892,1.0375 -4.9907,1.0375 -2.0849,0 -3.8599,-0.4008 -5.3385,-1.1965 -1.4717,-0.7954 -2.4321,-1.8074 -2.8933,-3.0359 -0.4547,-1.2345 -0.6823,-2.9849 -0.6823,-5.2441 v -1.9795 h 7.2399 v 3.6723 c 0,1.1327 0.1012,1.8584 0.3034,2.183 0.2021,0.3246 0.5621,0.4836 1.0802,0.4836 0.5179,0 0.9034,-0.2036 1.1563,-0.6171 0.2526,-0.4074 0.379,-1.0185 0.379,-1.8204 0,-1.7757 -0.2401,-2.9404 -0.7203,-3.4813 -0.4992,-0.5473 -1.7121,-1.4638 -3.6454,-2.7496 -1.9329,-1.2917 -3.2093,-2.2337 -3.8409,-2.8193 -0.6256,-0.5856 -1.1497,-1.3938 -1.5605,-2.4248 -0.4104,-1.0312 -0.6191,-2.3485 -0.6191,-3.9523 0,-2.3102 0.2906,-4.0034 0.8782,-5.0726 0.5876,-1.0692 1.5287,-1.9029 2.8366,-2.5075 1.3077,-0.6047 2.8806,-0.9037 4.7316,-0.9037 2.0217,0 3.7401,0.3308 5.1679,0.9864 1.4216,0.6619 2.3627,1.4894 2.8239,2.4948 0.4611,0.9992 0.695,2.6986 0.695,5.0981 z m 13.2622,-9.165 v 30.2057 h -7.8083 v -30.2057 z m 13.2622,0 v 24.1722 h 4.7004 v 6.0335 h -12.5088 v -30.2057 z"
       style="fill:#ffffff;fill-rule:evenodd"
       id="path138" />
  </g>
</svg>
